<svg data-v-423bf9ae="" xmlns="http://www.w3.org/2000/svg" viewBox="0 0 643 104" class="iconLeft"><!----><!----><!----><g data-v-423bf9ae="" id="d5b9487b-9f79-434a-9cd4-6029d385e33e" fill="#ffffff" transform="matrix(5.703421805055199,0,0,5.703421805055199,115.67881904917164,-27.63180728599052)"><path d="M7.80 13.68L7.80 13.68Q8.92 13.89 9.55 14.55L9.55 14.55L9.55 14.55Q10.18 15.22 10.18 16.20L10.18 16.20L10.18 16.20Q10.18 17.09 9.57 17.77L9.57 17.77L9.57 17.77Q8.96 18.44 7.84 18.80L7.84 18.80L7.84 18.80Q6.72 19.17 5.22 19.17L5.22 19.17L5.22 19.17Q2.94 19.17 1.93 18.63L1.93 18.63L1.93 18.63Q0.91 18.09 0.91 16.87L0.91 16.87L0.91 16.87Q0.91 16.27 1.08 15.09L1.08 15.09L1.08 15.09Q1.25 13.92 1.72 11.19L1.72 11.19L0.98 9.69L0.98 9.69Q2.56 8.67 3.86 8.67L3.86 8.67L3.86 8.67Q4.73 8.67 4.90 9.51L4.90 9.51L4.90 9.51Q6.34 8.68 7.73 8.68L7.73 8.68L7.73 8.68Q8.85 8.68 9.49 9.25L9.49 9.25L9.49 9.25Q10.14 9.81 10.14 10.79L10.14 10.79L10.14 10.79Q10.14 11.77 9.54 12.50L9.54 12.50L9.54 12.50Q8.95 13.23 7.80 13.68L7.80 13.68ZM4.76 10.72L4.76 10.72Q4.58 11.59 4.28 13.52L4.28 13.52L4.28 13.52Q5.57 13.44 6.33 12.92L6.33 12.92L6.33 12.92Q7.08 12.39 7.08 11.58L7.08 11.58L7.08 11.58Q7.08 10.53 5.89 10.53L5.89 10.53L5.89 10.53Q5.26 10.53 4.76 10.72L4.76 10.72ZM5.36 17.58L5.36 17.58Q6.16 17.58 6.64 17.16L6.64 17.16L6.64 17.16Q7.13 16.73 7.13 16.02L7.13 16.02L7.13 16.02Q7.13 15.34 6.68 14.97L6.68 14.97L6.68 14.97Q6.23 14.60 5.42 14.60L5.42 14.60L5.42 14.60Q4.76 14.60 4.10 14.83L4.10 14.83L4.10 14.83Q3.93 16.20 3.82 17.28L3.82 17.28L3.82 17.28Q4.14 17.42 4.56 17.50L4.56 17.50L4.56 17.50Q4.97 17.58 5.36 17.58L5.36 17.58ZM19.60 10.12L19.60 10.12Q20.54 10.12 21.06 10.86L21.06 10.86L21.06 10.86Q21.59 11.59 21.59 12.89L21.59 12.89L21.59 12.89Q21.59 14.67 20.85 16.11L20.85 16.11L20.85 16.11Q20.10 17.54 18.80 18.36L18.80 18.36L18.80 18.36Q17.50 19.18 15.89 19.18L15.89 19.18L15.89 19.18Q14.56 19.18 13.56 18.63L13.56 18.63L13.56 18.63Q12.56 18.09 12.01 17.11L12.01 17.11L12.01 17.11Q11.47 16.13 11.47 14.87L11.47 14.87L11.47 14.87Q11.47 13.06 12.21 11.65L12.21 11.65L12.21 11.65Q12.96 10.23 14.20 9.46L14.20 9.46L14.20 9.46Q15.44 8.68 16.87 8.68L16.87 8.68L16.87 8.68Q17.81 8.68 18.21 9.00L18.21 9.00L18.21 9.00Q18.62 9.32 18.62 10.02L18.62 10.02L18.62 10.02Q18.62 10.18 18.59 10.43L18.59 10.43L18.59 10.43Q19.03 10.12 19.60 10.12L19.60 10.12ZM16.56 17.70L16.56 17.70Q17.25 17.70 17.90 17.31L17.90 17.31L17.90 17.31Q18.55 16.93 19.01 16.24L19.01 16.24L19.01 16.24Q19.47 15.55 19.61 14.69L19.61 14.69L19.61 14.69Q17.79 13.85 17.79 12.01L17.79 12.01L17.79 12.01Q17.79 11.35 18.17 10.84L18.17 10.84L18.17 10.84Q17.78 10.78 17.61 10.78L17.61 10.78L17.61 10.78Q16.69 10.78 15.99 11.33L15.99 11.33L15.99 11.33Q15.29 11.89 14.90 12.82L14.90 12.82L14.90 12.82Q14.52 13.76 14.52 14.87L14.52 14.87L14.52 14.87Q14.52 16.24 15.06 16.97L15.06 16.97L15.06 16.97Q15.61 17.70 16.56 17.70L16.56 17.70ZM30.42 10.12L30.42 10.12Q31.36 10.12 31.89 10.86L31.89 10.86L31.89 10.86Q32.41 11.59 32.41 12.89L32.41 12.89L32.41 12.89Q32.41 14.67 31.67 16.11L31.67 16.11L31.67 16.11Q30.93 17.54 29.62 18.36L29.62 18.36L29.62 18.36Q28.32 19.18 26.71 19.18L26.71 19.18L26.71 19.18Q25.38 19.18 24.38 18.63L24.38 18.63L24.38 18.63Q23.38 18.09 22.83 17.11L22.83 17.11L22.83 17.11Q22.29 16.13 22.29 14.87L22.29 14.87L22.29 14.87Q22.29 13.06 23.04 11.65L23.04 11.65L23.04 11.65Q23.79 10.23 25.03 9.46L25.03 9.46L25.03 9.46Q26.26 8.68 27.69 8.68L27.69 8.68L27.69 8.68Q28.63 8.68 29.04 9.00L29.04 9.00L29.04 9.00Q29.44 9.32 29.44 10.02L29.44 10.02L29.44 10.02Q29.44 10.18 29.41 10.43L29.41 10.43L29.41 10.43Q29.85 10.12 30.42 10.12L30.42 10.12ZM27.38 17.70L27.38 17.70Q28.07 17.70 28.72 17.31L28.72 17.31L28.72 17.31Q29.37 16.93 29.83 16.24L29.83 16.24L29.83 16.24Q30.30 15.55 30.44 14.69L30.44 14.69L30.44 14.69Q28.62 13.85 28.62 12.01L28.62 12.01L28.62 12.01Q28.62 11.35 28.99 10.84L28.99 10.84L28.99 10.84Q28.60 10.78 28.43 10.78L28.43 10.78L28.43 10.78Q27.51 10.78 26.81 11.33L26.81 11.33L26.81 11.33Q26.11 11.89 25.73 12.82L25.73 12.82L25.73 12.82Q25.34 13.76 25.34 14.87L25.34 14.87L25.34 14.87Q25.34 16.24 25.89 16.97L25.89 16.97L25.89 16.97Q26.43 17.70 27.38 17.70L27.38 17.70ZM40.26 13.10L40.26 13.10Q40.87 15.12 41.59 16.53L41.59 16.53L41.59 16.53Q42.31 17.93 42.99 18.41L42.99 18.41L42.99 18.41Q42.69 18.72 42.08 18.95L42.08 18.95L42.08 18.95Q41.48 19.18 40.99 19.18L40.99 19.18L40.99 19.18Q40.01 19.18 39.45 18.67L39.45 18.67L39.45 18.67Q38.88 18.16 38.43 16.88L38.43 16.88L37.62 14.60L36.78 15.05L36.78 15.05Q36.55 16.45 36.55 16.81L36.55 16.81L36.55 16.81Q36.55 17.46 36.65 17.85L36.65 17.85L36.65 17.85Q36.74 18.24 36.97 18.56L36.97 18.56L36.97 18.56Q36.22 19.19 35.24 19.19L35.24 19.19L35.24 19.19Q34.34 19.19 33.94 18.75L33.94 18.75L33.94 18.75Q33.53 18.30 33.53 17.30L33.53 17.30L33.53 17.30Q33.53 16.67 33.71 15.43L33.71 15.43L33.71 15.43Q33.89 14.18 34.41 11.19L34.41 11.19L33.67 9.69L33.67 9.69Q35.25 8.67 36.55 8.67L36.55 8.67L36.55 8.67Q37.63 8.67 37.63 9.98L37.63 9.98L37.63 9.98Q37.63 10.47 37.16 13.01L37.16 13.01L37.10 13.33L37.70 12.88L37.70 12.88Q38.68 12.15 39.21 11.40L39.21 11.40L39.21 11.40Q39.75 10.64 39.75 9.97L39.75 9.97L39.75 9.97Q39.75 9.65 39.63 9.31L39.63 9.31L39.63 9.31Q40.67 8.68 41.59 8.68L41.59 8.68L41.59 8.68Q42.97 8.68 42.97 9.94L42.97 9.94L42.97 9.94Q42.97 10.68 42.30 11.46L42.30 11.46L42.30 11.46Q41.64 12.24 40.26 13.10L40.26 13.10ZM47.49 19.18L47.49 19.18Q45.44 19.18 44.46 18.66L44.46 18.66L44.46 18.66Q43.48 18.14 43.48 17.26L43.48 17.26L43.48 17.26Q43.48 16.88 43.67 16.49L43.67 16.49L43.67 16.49Q43.85 16.09 44.17 15.81L44.17 15.81L44.17 15.81Q44.76 16.63 45.52 17.09L45.52 17.09L45.52 17.09Q46.28 17.56 47.33 17.56L47.33 17.56L47.33 17.56Q48.17 17.56 48.71 17.29L48.71 17.29L48.71 17.29Q49.24 17.02 49.24 16.49L49.24 16.49L49.24 16.49Q49.24 16.10 48.81 15.86L48.81 15.86L48.81 15.86Q48.38 15.61 47.43 15.29L47.43 15.29L47.43 15.29Q46.40 14.92 45.72 14.59L45.72 14.59L45.72 14.59Q45.04 14.25 44.54 13.64L44.54 13.64L44.54 13.64Q44.04 13.02 44.04 12.08L44.04 12.08L44.04 12.08Q44.04 10.96 44.75 10.19L44.75 10.19L44.75 10.19Q45.46 9.42 46.66 9.04L46.66 9.04L46.66 9.04Q47.85 8.67 49.32 8.67L49.32 8.67L49.32 8.67Q50.41 8.67 51.23 8.90L51.23 8.90L51.23 8.90Q52.05 9.13 52.49 9.55L52.49 9.55L52.49 9.55Q52.92 9.97 52.92 10.50L52.92 10.50L52.92 10.50Q52.92 11.21 52.42 11.62L52.42 11.62L52.42 11.62Q51.93 12.03 51.20 12.03L51.20 12.03L51.20 12.03Q50.51 12.03 49.95 11.64L49.95 11.64L49.95 11.64Q49.39 11.26 49.07 10.51L49.07 10.51L49.07 10.51Q48.22 10.60 47.66 10.93L47.66 10.93L47.66 10.93Q47.10 11.26 47.10 11.73L47.10 11.73L47.10 11.73Q47.10 12.15 47.54 12.40L47.54 12.40L47.54 12.40Q47.99 12.64 48.96 12.95L48.96 12.95L48.96 12.95Q50.01 13.29 50.67 13.60L50.67 13.60L50.67 13.60Q51.32 13.92 51.81 14.50L51.81 14.50L51.81 14.50Q52.29 15.08 52.29 15.99L52.29 15.99L52.29 15.99Q52.29 17.02 51.58 17.75L51.58 17.75L51.58 17.75Q50.88 18.47 49.77 18.82L49.77 18.82L49.77 18.82Q48.66 19.18 47.49 19.18L47.49 19.18ZM62.24 8.85L62.24 8.85Q62.50 9.45 62.50 10.18L62.50 10.18L62.50 10.18Q62.50 11.05 61.94 11.54L61.94 11.54L61.94 11.54Q61.38 12.04 60.41 12.04L60.41 12.04L60.41 12.04Q59.98 12.04 59.44 11.97L59.44 11.97L59.44 11.97Q59.07 13.86 58.87 14.97L58.87 14.97L58.87 14.97Q58.67 16.07 58.67 16.53L58.67 16.53L58.67 16.53Q58.67 17.89 59.09 18.56L59.09 18.56L59.09 18.56Q58.25 19.19 57.36 19.19L57.36 19.19L57.36 19.19Q56.43 19.19 56.04 18.67L56.04 18.67L56.04 18.67Q55.65 18.14 55.65 17.02L55.65 17.02L55.65 17.02Q55.65 16.37 55.85 15.09L55.85 15.09L55.85 15.09Q56.04 13.82 56.48 11.48L56.48 11.48L56.14 11.47L54.01 12.01L54.01 12.01Q53.76 11.41 53.76 10.68L53.76 10.68L53.76 10.68Q53.76 9.81 54.32 9.32L54.32 9.32L54.32 9.32Q54.88 8.82 55.85 8.82L55.85 8.82L55.85 8.82Q56.34 8.82 56.83 8.89L56.83 8.89L56.83 8.89Q57.32 8.96 58.02 9.10L58.02 9.10L58.02 9.10Q58.69 9.24 59.16 9.31L59.16 9.31L59.16 9.31Q59.64 9.38 60.12 9.39L60.12 9.39L62.24 8.85ZM70.77 10.12L70.77 10.12Q71.71 10.12 72.23 10.86L72.23 10.86L72.23 10.86Q72.76 11.59 72.76 12.89L72.76 12.89L72.76 12.89Q72.76 14.67 72.02 16.11L72.02 16.11L72.02 16.11Q71.27 17.54 69.97 18.36L69.97 18.36L69.97 18.36Q68.67 19.18 67.06 19.18L67.06 19.18L67.06 19.18Q65.73 19.18 64.73 18.63L64.73 18.63L64.73 18.63Q63.73 18.09 63.18 17.11L63.18 17.11L63.18 17.11Q62.64 16.13 62.64 14.87L62.64 14.87L62.64 14.87Q62.64 13.06 63.38 11.65L63.38 11.65L63.38 11.65Q64.13 10.23 65.37 9.46L65.37 9.46L65.37 9.46Q66.61 8.68 68.04 8.68L68.04 8.68L68.04 8.68Q68.98 8.68 69.38 9.00L69.38 9.00L69.38 9.00Q69.79 9.32 69.79 10.02L69.79 10.02L69.79 10.02Q69.79 10.18 69.76 10.43L69.76 10.43L69.76 10.43Q70.20 10.12 70.77 10.12L70.77 10.12ZM67.73 17.70L67.73 17.70Q68.42 17.70 69.07 17.31L69.07 17.31L69.07 17.31Q69.72 16.93 70.18 16.24L70.18 16.24L70.18 16.24Q70.64 15.55 70.78 14.69L70.78 14.69L70.78 14.69Q68.96 13.85 68.96 12.01L68.96 12.01L68.96 12.01Q68.96 11.35 69.34 10.84L69.34 10.84L69.34 10.84Q68.95 10.78 68.78 10.78L68.78 10.78L68.78 10.78Q67.86 10.78 67.16 11.33L67.16 11.33L67.16 11.33Q66.46 11.89 66.07 12.82L66.07 12.82L66.07 12.82Q65.69 13.76 65.69 14.87L65.69 14.87L65.69 14.87Q65.69 16.24 66.23 16.97L66.23 16.97L66.23 16.97Q66.78 17.70 67.73 17.70L67.73 17.70ZM81.33 14.78L81.33 14.78Q81.84 16.16 82.40 17.09L82.40 17.09L82.40 17.09Q82.96 18.03 83.50 18.41L83.50 18.41L83.50 18.41Q83.19 18.72 82.59 18.95L82.59 18.95L82.59 18.95Q81.98 19.18 81.49 19.18L81.49 19.18L81.49 19.18Q80.51 19.18 79.95 18.67L79.95 18.67L79.95 18.67Q79.38 18.16 78.93 16.88L78.93 16.88L78.46 15.54L78.40 15.54L78.40 15.54Q77.63 15.54 77.06 15.34L77.06 15.34L77.06 15.34Q76.90 16.30 76.90 16.81L76.90 16.81L76.90 16.81Q76.90 17.46 76.99 17.85L76.99 17.85L76.99 17.85Q77.08 18.24 77.32 18.56L77.32 18.56L77.32 18.56Q76.52 19.19 75.59 19.19L75.59 19.19L75.59 19.19Q74.69 19.19 74.28 18.75L74.28 18.75L74.28 18.75Q73.88 18.30 73.88 17.30L73.88 17.30L73.88 17.30Q73.88 16.69 74.05 15.46L74.05 15.46L74.05 15.46Q74.23 14.22 74.76 11.19L74.76 11.19L74.02 9.69L74.02 9.69Q75.60 8.67 76.90 8.67L76.90 8.67L76.90 8.67Q77.56 8.67 77.81 9.16L77.81 9.16L77.81 9.16Q78.74 8.69 79.95 8.69L79.95 8.69L79.95 8.69Q80.92 8.69 81.63 9.11L81.63 9.11L81.63 9.11Q82.33 9.52 82.70 10.19L82.70 10.19L82.70 10.19Q83.08 10.86 83.08 11.62L83.08 11.62L83.08 11.62Q83.08 12.56 82.63 13.40L82.63 13.40L82.63 13.40Q82.19 14.24 81.33 14.78L81.33 14.78ZM77.34 13.76L77.34 13.76Q77.56 13.79 77.66 13.79L77.66 13.79L77.66 13.79Q78.65 13.79 79.30 13.24L79.30 13.24L79.30 13.24Q79.95 12.70 79.95 11.82L79.95 11.82L79.95 11.82Q79.95 11.30 79.58 10.89L79.58 10.89L79.58 10.89Q79.21 10.49 78.54 10.49L78.54 10.49L78.54 10.49Q78.26 10.49 77.92 10.60L77.92 10.60L77.92 10.60Q77.85 11.07 77.46 13.10L77.46 13.10L77.34 13.76ZM89.63 16.93L89.63 16.93Q90.71 16.77 91.70 16.38L91.70 16.38L91.70 16.38Q91.85 16.74 91.85 17.28L91.85 17.28L91.85 17.28Q91.85 18.19 91.31 18.68L91.31 18.68L91.31 18.68Q90.76 19.18 89.75 19.18L89.75 19.18L89.75 19.18Q88.56 19.18 87.51 18.77L87.51 18.77L87.51 18.77Q86.90 19.19 86.04 19.19L86.04 19.19L86.04 19.19Q85.15 19.19 84.74 18.75L84.74 18.75L84.74 18.75Q84.34 18.30 84.34 17.30L84.34 17.30L84.34 17.30Q84.34 16.67 84.52 15.41L84.52 15.41L84.52 15.41Q84.70 14.14 85.22 11.19L85.22 11.19L84.48 9.69L84.48 9.69Q86.06 8.67 87.36 8.67L87.36 8.67L87.36 8.67Q88.19 8.67 88.38 9.45L88.38 9.45L88.38 9.45Q89.33 9.39 90.20 9.23L90.20 9.23L90.20 9.23Q91.07 9.06 92.33 8.74L92.33 8.74L92.33 8.74Q92.44 9.25 92.44 9.65L92.44 9.65L92.44 9.65Q92.44 10.71 91.73 11.32L91.73 11.32L91.73 11.32Q91.01 11.93 89.77 11.93L89.77 11.93L89.77 11.93Q89.12 11.93 88.20 11.69L88.20 11.69L88.20 11.69Q88.06 12.49 87.85 13.62L87.85 13.62L87.85 13.62Q88.27 13.71 88.69 13.71L88.69 13.71L89.95 13.38L89.95 13.38Q90.02 13.66 90.02 14.06L90.02 14.06L90.02 14.06Q90.02 14.66 89.61 15.00L89.61 15.00L89.61 15.00Q89.21 15.34 88.49 15.34L88.49 15.34L88.49 15.34Q88.07 15.34 87.56 15.22L87.56 15.22L87.56 15.22Q87.36 16.46 87.36 16.81L87.36 16.81L87.36 16.93L89.63 16.93Z"></path></g><!----><g data-v-423bf9ae="" id="988b2b98-555f-4922-9574-7db680b80152" transform="matrix(1.0730730692545574,0,0,1.0730730692545574,-2.6536821168701934,-0.9419155333268208)" stroke="none" fill="#ffffff"><path d="M65.454 3.129c-.026-.735-.647-1.442-1.385-1.417l-13.348.473c-.738.026-1.307.858-1.281 1.597l.321 9.046 16.017-.569-.324-9.13zM49.952 18.166l16.016-.566 2.452 69.408-16.017.566zM52.745 97.213c.026.73.636 1.096 1.375 1.074l13.348-.475c.738-.026 1.317-.517 1.292-1.252l-.149-4.216-16.016.563.15 4.306zM3 96.743c0 .735.597 1.336 1.335 1.336H17.69c.738 0 1.336-.601 1.336-1.336V39.314H3v57.429zM19.027 13.938c0-.738-.598-1.335-1.336-1.335H4.336c-.738 0-1.336.598-1.336 1.335v9.349h16.027v-9.349zM45.738 24.753c0-.738-.597-1.335-1.335-1.335H25.705c-.738 0-1.335.597-1.335 1.335v9.219h21.369v-9.219zM24.37 44.657v52.086c0 .735.597 1.336 1.335 1.336h18.698c.738 0 1.335-.601 1.335-1.336V44.657H24.37zM81.102 96.926a1.335 1.335 0 0 0 1.513 1.138l13.22-1.879c.73-.104 1.252-.673 1.153-1.408l-8.833-62.25-15.87 2.254 8.817 62.145zM86.09 17.979a1.33 1.33 0 0 0-1.508-1.132l-13.225 1.875c-.73.102-1.252.673-1.148 1.403l1.325 9.362 15.87-2.251-1.314-9.257z"></path></g><!----></svg>