<svg data-v-423bf9ae="" xmlns="http://www.w3.org/2000/svg" viewBox="0 0 643 104" class="iconLeftSlogan"><!----><!----><!----><g data-v-423bf9ae="" id="90fdeca1-d942-4025-aa7e-5ebf3d4025c0" fill="black" transform="matrix(5.703421805055199,0,0,5.703421805055199,115.67881904917164,-49.44866748496513)"><path d="M7.80 13.68L7.80 13.68Q8.92 13.89 9.55 14.55L9.55 14.55L9.55 14.55Q10.18 15.22 10.18 16.20L10.18 16.20L10.18 16.20Q10.18 17.09 9.57 17.77L9.57 17.77L9.57 17.77Q8.96 18.44 7.84 18.80L7.84 18.80L7.84 18.80Q6.72 19.17 5.22 19.17L5.22 19.17L5.22 19.17Q2.94 19.17 1.93 18.63L1.93 18.63L1.93 18.63Q0.91 18.09 0.91 16.87L0.91 16.87L0.91 16.87Q0.91 16.27 1.08 15.09L1.08 15.09L1.08 15.09Q1.25 13.92 1.72 11.19L1.72 11.19L0.98 9.69L0.98 9.69Q2.56 8.67 3.86 8.67L3.86 8.67L3.86 8.67Q4.73 8.67 4.90 9.51L4.90 9.51L4.90 9.51Q6.34 8.68 7.73 8.68L7.73 8.68L7.73 8.68Q8.85 8.68 9.49 9.25L9.49 9.25L9.49 9.25Q10.14 9.81 10.14 10.79L10.14 10.79L10.14 10.79Q10.14 11.77 9.54 12.50L9.54 12.50L9.54 12.50Q8.95 13.23 7.80 13.68L7.80 13.68ZM4.76 10.72L4.76 10.72Q4.58 11.59 4.28 13.52L4.28 13.52L4.28 13.52Q5.57 13.44 6.33 12.92L6.33 12.92L6.33 12.92Q7.08 12.39 7.08 11.58L7.08 11.58L7.08 11.58Q7.08 10.53 5.89 10.53L5.89 10.53L5.89 10.53Q5.26 10.53 4.76 10.72L4.76 10.72ZM5.36 17.58L5.36 17.58Q6.16 17.58 6.64 17.16L6.64 17.16L6.64 17.16Q7.13 16.73 7.13 16.02L7.13 16.02L7.13 16.02Q7.13 15.34 6.68 14.97L6.68 14.97L6.68 14.97Q6.23 14.60 5.42 14.60L5.42 14.60L5.42 14.60Q4.76 14.60 4.10 14.83L4.10 14.83L4.10 14.83Q3.93 16.20 3.82 17.28L3.82 17.28L3.82 17.28Q4.14 17.42 4.56 17.50L4.56 17.50L4.56 17.50Q4.97 17.58 5.36 17.58L5.36 17.58ZM19.60 10.12L19.60 10.12Q20.54 10.12 21.06 10.86L21.06 10.86L21.06 10.86Q21.59 11.59 21.59 12.89L21.59 12.89L21.59 12.89Q21.59 14.67 20.85 16.11L20.85 16.11L20.85 16.11Q20.10 17.54 18.80 18.36L18.80 18.36L18.80 18.36Q17.50 19.18 15.89 19.18L15.89 19.18L15.89 19.18Q14.56 19.18 13.56 18.63L13.56 18.63L13.56 18.63Q12.56 18.09 12.01 17.11L12.01 17.11L12.01 17.11Q11.47 16.13 11.47 14.87L11.47 14.87L11.47 14.87Q11.47 13.06 12.21 11.65L12.21 11.65L12.21 11.65Q12.96 10.23 14.20 9.46L14.20 9.46L14.20 9.46Q15.44 8.68 16.87 8.68L16.87 8.68L16.87 8.68Q17.81 8.68 18.21 9.00L18.21 9.00L18.21 9.00Q18.62 9.32 18.62 10.02L18.62 10.02L18.62 10.02Q18.62 10.18 18.59 10.43L18.59 10.43L18.59 10.43Q19.03 10.12 19.60 10.12L19.60 10.12ZM16.56 17.70L16.56 17.70Q17.25 17.70 17.90 17.31L17.90 17.31L17.90 17.31Q18.55 16.93 19.01 16.24L19.01 16.24L19.01 16.24Q19.47 15.55 19.61 14.69L19.61 14.69L19.61 14.69Q17.79 13.85 17.79 12.01L17.79 12.01L17.79 12.01Q17.79 11.35 18.17 10.84L18.17 10.84L18.17 10.84Q17.78 10.78 17.61 10.78L17.61 10.78L17.61 10.78Q16.69 10.78 15.99 11.33L15.99 11.33L15.99 11.33Q15.29 11.89 14.90 12.82L14.90 12.82L14.90 12.82Q14.52 13.76 14.52 14.87L14.52 14.87L14.52 14.87Q14.52 16.24 15.06 16.97L15.06 16.97L15.06 16.97Q15.61 17.70 16.56 17.70L16.56 17.70ZM30.42 10.12L30.42 10.12Q31.36 10.12 31.89 10.86L31.89 10.86L31.89 10.86Q32.41 11.59 32.41 12.89L32.41 12.89L32.41 12.89Q32.41 14.67 31.67 16.11L31.67 16.11L31.67 16.11Q30.93 17.54 29.62 18.36L29.62 18.36L29.62 18.36Q28.32 19.18 26.71 19.18L26.71 19.18L26.71 19.18Q25.38 19.18 24.38 18.63L24.38 18.63L24.38 18.63Q23.38 18.09 22.83 17.11L22.83 17.11L22.83 17.11Q22.29 16.13 22.29 14.87L22.29 14.87L22.29 14.87Q22.29 13.06 23.04 11.65L23.04 11.65L23.04 11.65Q23.79 10.23 25.03 9.46L25.03 9.46L25.03 9.46Q26.26 8.68 27.69 8.68L27.69 8.68L27.69 8.68Q28.63 8.68 29.04 9.00L29.04 9.00L29.04 9.00Q29.44 9.32 29.44 10.02L29.44 10.02L29.44 10.02Q29.44 10.18 29.41 10.43L29.41 10.43L29.41 10.43Q29.85 10.12 30.42 10.12L30.42 10.12ZM27.38 17.70L27.38 17.70Q28.07 17.70 28.72 17.31L28.72 17.31L28.72 17.31Q29.37 16.93 29.83 16.24L29.83 16.24L29.83 16.24Q30.30 15.55 30.44 14.69L30.44 14.69L30.44 14.69Q28.62 13.85 28.62 12.01L28.62 12.01L28.62 12.01Q28.62 11.35 28.99 10.84L28.99 10.84L28.99 10.84Q28.60 10.78 28.43 10.78L28.43 10.78L28.43 10.78Q27.51 10.78 26.81 11.33L26.81 11.33L26.81 11.33Q26.11 11.89 25.73 12.82L25.73 12.82L25.73 12.82Q25.34 13.76 25.34 14.87L25.34 14.87L25.34 14.87Q25.34 16.24 25.89 16.97L25.89 16.97L25.89 16.97Q26.43 17.70 27.38 17.70L27.38 17.70ZM40.26 13.10L40.26 13.10Q40.87 15.12 41.59 16.53L41.59 16.53L41.59 16.53Q42.31 17.93 42.99 18.41L42.99 18.41L42.99 18.41Q42.69 18.72 42.08 18.95L42.08 18.95L42.08 18.95Q41.48 19.18 40.99 19.18L40.99 19.18L40.99 19.18Q40.01 19.18 39.45 18.67L39.45 18.67L39.45 18.67Q38.88 18.16 38.43 16.88L38.43 16.88L37.62 14.60L36.78 15.05L36.78 15.05Q36.55 16.45 36.55 16.81L36.55 16.81L36.55 16.81Q36.55 17.46 36.65 17.85L36.65 17.85L36.65 17.85Q36.74 18.24 36.97 18.56L36.97 18.56L36.97 18.56Q36.22 19.19 35.24 19.19L35.24 19.19L35.24 19.19Q34.34 19.19 33.94 18.75L33.94 18.75L33.94 18.75Q33.53 18.30 33.53 17.30L33.53 17.30L33.53 17.30Q33.53 16.67 33.71 15.43L33.71 15.43L33.71 15.43Q33.89 14.18 34.41 11.19L34.41 11.19L33.67 9.69L33.67 9.69Q35.25 8.67 36.55 8.67L36.55 8.67L36.55 8.67Q37.63 8.67 37.63 9.98L37.63 9.98L37.63 9.98Q37.63 10.47 37.16 13.01L37.16 13.01L37.10 13.33L37.70 12.88L37.70 12.88Q38.68 12.15 39.21 11.40L39.21 11.40L39.21 11.40Q39.75 10.64 39.75 9.97L39.75 9.97L39.75 9.97Q39.75 9.65 39.63 9.31L39.63 9.31L39.63 9.31Q40.67 8.68 41.59 8.68L41.59 8.68L41.59 8.68Q42.97 8.68 42.97 9.94L42.97 9.94L42.97 9.94Q42.97 10.68 42.30 11.46L42.30 11.46L42.30 11.46Q41.64 12.24 40.26 13.10L40.26 13.10ZM47.49 19.18L47.49 19.18Q45.44 19.18 44.46 18.66L44.46 18.66L44.46 18.66Q43.48 18.14 43.48 17.26L43.48 17.26L43.48 17.26Q43.48 16.88 43.67 16.49L43.67 16.49L43.67 16.49Q43.85 16.09 44.17 15.81L44.17 15.81L44.17 15.81Q44.76 16.63 45.52 17.09L45.52 17.09L45.52 17.09Q46.28 17.56 47.33 17.56L47.33 17.56L47.33 17.56Q48.17 17.56 48.71 17.29L48.71 17.29L48.71 17.29Q49.24 17.02 49.24 16.49L49.24 16.49L49.24 16.49Q49.24 16.10 48.81 15.86L48.81 15.86L48.81 15.86Q48.38 15.61 47.43 15.29L47.43 15.29L47.43 15.29Q46.40 14.92 45.72 14.59L45.72 14.59L45.72 14.59Q45.04 14.25 44.54 13.64L44.54 13.64L44.54 13.64Q44.04 13.02 44.04 12.08L44.04 12.08L44.04 12.08Q44.04 10.96 44.75 10.19L44.75 10.19L44.75 10.19Q45.46 9.42 46.66 9.04L46.66 9.04L46.66 9.04Q47.85 8.67 49.32 8.67L49.32 8.67L49.32 8.67Q50.41 8.67 51.23 8.90L51.23 8.90L51.23 8.90Q52.05 9.13 52.49 9.55L52.49 9.55L52.49 9.55Q52.92 9.97 52.92 10.50L52.92 10.50L52.92 10.50Q52.92 11.21 52.42 11.62L52.42 11.62L52.42 11.62Q51.93 12.03 51.20 12.03L51.20 12.03L51.20 12.03Q50.51 12.03 49.95 11.64L49.95 11.64L49.95 11.64Q49.39 11.26 49.07 10.51L49.07 10.51L49.07 10.51Q48.22 10.60 47.66 10.93L47.66 10.93L47.66 10.93Q47.10 11.26 47.10 11.73L47.10 11.73L47.10 11.73Q47.10 12.15 47.54 12.40L47.54 12.40L47.54 12.40Q47.99 12.64 48.96 12.95L48.96 12.95L48.96 12.95Q50.01 13.29 50.67 13.60L50.67 13.60L50.67 13.60Q51.32 13.92 51.81 14.50L51.81 14.50L51.81 14.50Q52.29 15.08 52.29 15.99L52.29 15.99L52.29 15.99Q52.29 17.02 51.58 17.75L51.58 17.75L51.58 17.75Q50.88 18.47 49.77 18.82L49.77 18.82L49.77 18.82Q48.66 19.18 47.49 19.18L47.49 19.18ZM62.24 8.85L62.24 8.85Q62.50 9.45 62.50 10.18L62.50 10.18L62.50 10.18Q62.50 11.05 61.94 11.54L61.94 11.54L61.94 11.54Q61.38 12.04 60.41 12.04L60.41 12.04L60.41 12.04Q59.98 12.04 59.44 11.97L59.44 11.97L59.44 11.97Q59.07 13.86 58.87 14.97L58.87 14.97L58.87 14.97Q58.67 16.07 58.67 16.53L58.67 16.53L58.67 16.53Q58.67 17.89 59.09 18.56L59.09 18.56L59.09 18.56Q58.25 19.19 57.36 19.19L57.36 19.19L57.36 19.19Q56.43 19.19 56.04 18.67L56.04 18.67L56.04 18.67Q55.65 18.14 55.65 17.02L55.65 17.02L55.65 17.02Q55.65 16.37 55.85 15.09L55.85 15.09L55.85 15.09Q56.04 13.82 56.48 11.48L56.48 11.48L56.14 11.47L54.01 12.01L54.01 12.01Q53.76 11.41 53.76 10.68L53.76 10.68L53.76 10.68Q53.76 9.81 54.32 9.32L54.32 9.32L54.32 9.32Q54.88 8.82 55.85 8.82L55.85 8.82L55.85 8.82Q56.34 8.82 56.83 8.89L56.83 8.89L56.83 8.89Q57.32 8.96 58.02 9.10L58.02 9.10L58.02 9.10Q58.69 9.24 59.16 9.31L59.16 9.31L59.16 9.31Q59.64 9.38 60.12 9.39L60.12 9.39L62.24 8.85ZM70.77 10.12L70.77 10.12Q71.71 10.12 72.23 10.86L72.23 10.86L72.23 10.86Q72.76 11.59 72.76 12.89L72.76 12.89L72.76 12.89Q72.76 14.67 72.02 16.11L72.02 16.11L72.02 16.11Q71.27 17.54 69.97 18.36L69.97 18.36L69.97 18.36Q68.67 19.18 67.06 19.18L67.06 19.18L67.06 19.18Q65.73 19.18 64.73 18.63L64.73 18.63L64.73 18.63Q63.73 18.09 63.18 17.11L63.18 17.11L63.18 17.11Q62.64 16.13 62.64 14.87L62.64 14.87L62.64 14.87Q62.64 13.06 63.38 11.65L63.38 11.65L63.38 11.65Q64.13 10.23 65.37 9.46L65.37 9.46L65.37 9.46Q66.61 8.68 68.04 8.68L68.04 8.68L68.04 8.68Q68.98 8.68 69.38 9.00L69.38 9.00L69.38 9.00Q69.79 9.32 69.79 10.02L69.79 10.02L69.79 10.02Q69.79 10.18 69.76 10.43L69.76 10.43L69.76 10.43Q70.20 10.12 70.77 10.12L70.77 10.12ZM67.73 17.70L67.73 17.70Q68.42 17.70 69.07 17.31L69.07 17.31L69.07 17.31Q69.72 16.93 70.18 16.24L70.18 16.24L70.18 16.24Q70.64 15.55 70.78 14.69L70.78 14.69L70.78 14.69Q68.96 13.85 68.96 12.01L68.96 12.01L68.96 12.01Q68.96 11.35 69.34 10.84L69.34 10.84L69.34 10.84Q68.95 10.78 68.78 10.78L68.78 10.78L68.78 10.78Q67.86 10.78 67.16 11.33L67.16 11.33L67.16 11.33Q66.46 11.89 66.07 12.82L66.07 12.82L66.07 12.82Q65.69 13.76 65.69 14.87L65.69 14.87L65.69 14.87Q65.69 16.24 66.23 16.97L66.23 16.97L66.23 16.97Q66.78 17.70 67.73 17.70L67.73 17.70ZM81.33 14.78L81.33 14.78Q81.84 16.16 82.40 17.09L82.40 17.09L82.40 17.09Q82.96 18.03 83.50 18.41L83.50 18.41L83.50 18.41Q83.19 18.72 82.59 18.95L82.59 18.95L82.59 18.95Q81.98 19.18 81.49 19.18L81.49 19.18L81.49 19.18Q80.51 19.18 79.95 18.67L79.95 18.67L79.95 18.67Q79.38 18.16 78.93 16.88L78.93 16.88L78.46 15.54L78.40 15.54L78.40 15.54Q77.63 15.54 77.06 15.34L77.06 15.34L77.06 15.34Q76.90 16.30 76.90 16.81L76.90 16.81L76.90 16.81Q76.90 17.46 76.99 17.85L76.99 17.85L76.99 17.85Q77.08 18.24 77.32 18.56L77.32 18.56L77.32 18.56Q76.52 19.19 75.59 19.19L75.59 19.19L75.59 19.19Q74.69 19.19 74.28 18.75L74.28 18.75L74.28 18.75Q73.88 18.30 73.88 17.30L73.88 17.30L73.88 17.30Q73.88 16.69 74.05 15.46L74.05 15.46L74.05 15.46Q74.23 14.22 74.76 11.19L74.76 11.19L74.02 9.69L74.02 9.69Q75.60 8.67 76.90 8.67L76.90 8.67L76.90 8.67Q77.56 8.67 77.81 9.16L77.81 9.16L77.81 9.16Q78.74 8.69 79.95 8.69L79.95 8.69L79.95 8.69Q80.92 8.69 81.63 9.11L81.63 9.11L81.63 9.11Q82.33 9.52 82.70 10.19L82.70 10.19L82.70 10.19Q83.08 10.86 83.08 11.62L83.08 11.62L83.08 11.62Q83.08 12.56 82.63 13.40L82.63 13.40L82.63 13.40Q82.19 14.24 81.33 14.78L81.33 14.78ZM77.34 13.76L77.34 13.76Q77.56 13.79 77.66 13.79L77.66 13.79L77.66 13.79Q78.65 13.79 79.30 13.24L79.30 13.24L79.30 13.24Q79.95 12.70 79.95 11.82L79.95 11.82L79.95 11.82Q79.95 11.30 79.58 10.89L79.58 10.89L79.58 10.89Q79.21 10.49 78.54 10.49L78.54 10.49L78.54 10.49Q78.26 10.49 77.92 10.60L77.92 10.60L77.92 10.60Q77.85 11.07 77.46 13.10L77.46 13.10L77.34 13.76ZM89.63 16.93L89.63 16.93Q90.71 16.77 91.70 16.38L91.70 16.38L91.70 16.38Q91.85 16.74 91.85 17.28L91.85 17.28L91.85 17.28Q91.85 18.19 91.31 18.68L91.31 18.68L91.31 18.68Q90.76 19.18 89.75 19.18L89.75 19.18L89.75 19.18Q88.56 19.18 87.51 18.77L87.51 18.77L87.51 18.77Q86.90 19.19 86.04 19.19L86.04 19.19L86.04 19.19Q85.15 19.19 84.74 18.75L84.74 18.75L84.74 18.75Q84.34 18.30 84.34 17.30L84.34 17.30L84.34 17.30Q84.34 16.67 84.52 15.41L84.52 15.41L84.52 15.41Q84.70 14.14 85.22 11.19L85.22 11.19L84.48 9.69L84.48 9.69Q86.06 8.67 87.36 8.67L87.36 8.67L87.36 8.67Q88.19 8.67 88.38 9.45L88.38 9.45L88.38 9.45Q89.33 9.39 90.20 9.23L90.20 9.23L90.20 9.23Q91.07 9.06 92.33 8.74L92.33 8.74L92.33 8.74Q92.44 9.25 92.44 9.65L92.44 9.65L92.44 9.65Q92.44 10.71 91.73 11.32L91.73 11.32L91.73 11.32Q91.01 11.93 89.77 11.93L89.77 11.93L89.77 11.93Q89.12 11.93 88.20 11.69L88.20 11.69L88.20 11.69Q88.06 12.49 87.85 13.62L87.85 13.62L87.85 13.62Q88.27 13.71 88.69 13.71L88.69 13.71L89.95 13.38L89.95 13.38Q90.02 13.66 90.02 14.06L90.02 14.06L90.02 14.06Q90.02 14.66 89.61 15.00L89.61 15.00L89.61 15.00Q89.21 15.34 88.49 15.34L88.49 15.34L88.49 15.34Q88.07 15.34 87.56 15.22L87.56 15.22L87.56 15.22Q87.36 16.46 87.36 16.81L87.36 16.81L87.36 16.93L89.63 16.93Z"></path></g><!----><g data-v-423bf9ae="" id="5565b65a-048c-485d-9874-d7613ce75732" transform="matrix(1.0730730692545574,0,0,1.0730730692545574,-2.6536821168701934,-0.9419155333268208)" stroke="none" fill="black"><path d="M65.454 3.129c-.026-.735-.647-1.442-1.385-1.417l-13.348.473c-.738.026-1.307.858-1.281 1.597l.321 9.046 16.017-.569-.324-9.13zM49.952 18.166l16.016-.566 2.452 69.408-16.017.566zM52.745 97.213c.026.73.636 1.096 1.375 1.074l13.348-.475c.738-.026 1.317-.517 1.292-1.252l-.149-4.216-16.016.563.15 4.306zM3 96.743c0 .735.597 1.336 1.335 1.336H17.69c.738 0 1.336-.601 1.336-1.336V39.314H3v57.429zM19.027 13.938c0-.738-.598-1.335-1.336-1.335H4.336c-.738 0-1.336.598-1.336 1.335v9.349h16.027v-9.349zM45.738 24.753c0-.738-.597-1.335-1.335-1.335H25.705c-.738 0-1.335.597-1.335 1.335v9.219h21.369v-9.219zM24.37 44.657v52.086c0 .735.597 1.336 1.335 1.336h18.698c.738 0 1.335-.601 1.335-1.336V44.657H24.37zM81.102 96.926a1.335 1.335 0 0 0 1.513 1.138l13.22-1.879c.73-.104 1.252-.673 1.153-1.408l-8.833-62.25-15.87 2.254 8.817 62.145zM86.09 17.979a1.33 1.33 0 0 0-1.508-1.132l-13.225 1.875c-.73.102-1.252.673-1.148 1.403l1.325 9.362 15.87-2.251-1.314-9.257z"></path></g><!----><g data-v-423bf9ae="" id="1f9548f6-9c26-4deb-81a0-28e4f01a8dd0" fill="black" transform="matrix(0.7874857904052286,0,0,0.7874857904052286,120.31768476814747,57.01542902596932)"><path d="M12.57 4.44C12.75 4.42 12.85 4.34 12.85 4.19L12.85 3.92L11.68 3.92L11.17 3.92C11.10 3.92 11.06 3.92 11.02 3.93C10.98 3.95 10.95 3.99 10.91 4.05L7.01 10.92C6.97 10.99 6.94 11.06 6.92 11.13C6.89 11.20 6.86 11.28 6.83 11.35C6.78 11.20 6.72 11.06 6.65 10.93L2.65 4.05C2.60 3.99 2.58 3.95 2.53 3.93C2.49 3.92 2.45 3.92 2.38 3.92L1.89 3.92L0.70 3.92L0.70 4.19C0.70 4.34 0.80 4.42 0.98 4.44L1.12 4.44C1.19 4.44 1.29 4.45 1.43 4.45C1.57 4.45 1.72 4.47 1.89 4.47L1.89 13.26C1.72 13.26 1.57 13.27 1.43 13.27C1.29 13.27 1.19 13.29 1.12 13.29L0.98 13.29C0.80 13.30 0.70 13.38 0.70 13.54L0.70 13.82L1.89 13.82L2.51 13.82L3.72 13.82L3.72 13.54C3.72 13.38 3.63 13.30 3.44 13.29L3.30 13.29C3.23 13.29 3.12 13.27 2.98 13.27C2.84 13.27 2.67 13.26 2.51 13.26L2.51 5.38C2.51 5.25 2.51 5.12 2.49 4.98L6.50 11.91C6.57 12.04 6.66 12.10 6.78 12.10L6.89 12.10C7.01 12.10 7.10 12.04 7.17 11.91L11.06 4.98C11.05 5.12 11.05 5.25 11.05 5.38L11.05 13.26C10.88 13.26 10.71 13.27 10.57 13.27C10.43 13.27 10.32 13.29 10.25 13.29L10.11 13.29C9.93 13.30 9.83 13.38 9.83 13.54L9.83 13.82L11.05 13.82L11.68 13.82L12.85 13.82L12.85 13.54C12.85 13.38 12.75 13.30 12.57 13.29L12.45 13.29C12.38 13.29 12.26 13.27 12.12 13.27C11.98 13.27 11.84 13.26 11.68 13.26L11.68 4.47C11.84 4.47 11.98 4.45 12.12 4.45C12.26 4.45 12.38 4.44 12.45 4.44ZM24.01 4.44C24.19 4.42 24.28 4.34 24.28 4.19L24.28 3.91L23.10 3.91L22.39 3.91L21.20 3.91L21.20 4.19C21.20 4.34 21.29 4.42 21.48 4.44L21.62 4.44C21.69 4.44 21.78 4.45 21.92 4.45C22.06 4.45 22.22 4.47 22.39 4.47L22.39 13.26C22.22 13.26 22.06 13.27 21.92 13.27C21.78 13.27 21.69 13.29 21.62 13.29L21.48 13.29C21.29 13.30 21.20 13.38 21.20 13.54L21.20 13.82L22.39 13.82L23.10 13.82L24.28 13.82L24.28 13.54C24.28 13.38 24.19 13.30 24.01 13.29L23.87 13.29C23.80 13.29 23.70 13.27 23.56 13.27C23.42 13.27 23.27 13.26 23.10 13.26L23.10 4.47C23.27 4.47 23.42 4.45 23.56 4.45C23.70 4.45 23.80 4.44 23.87 4.44ZM40.35 12.21C40.32 12.18 40.28 12.15 40.24 12.15C40.21 12.15 40.19 12.15 40.17 12.17C40.15 12.18 40.12 12.21 40.10 12.22C39.90 12.40 39.69 12.56 39.49 12.70C39.30 12.84 39.09 12.94 38.85 13.03C38.61 13.13 38.36 13.20 38.08 13.24C37.80 13.29 37.49 13.31 37.14 13.31C36.58 13.31 36.04 13.22 35.56 13.01C35.07 12.81 34.66 12.52 34.31 12.14C33.96 11.76 33.67 11.28 33.47 10.74C33.28 10.19 33.18 9.56 33.18 8.86C33.18 8.18 33.28 7.56 33.47 7.01C33.68 6.47 33.96 6.01 34.33 5.61C34.69 5.24 35.13 4.94 35.63 4.73C36.13 4.52 36.68 4.42 37.28 4.42C38.18 4.42 39.00 4.56 39.73 4.89C39.77 5.78 39.82 6.30 39.82 6.41C39.83 6.64 39.91 6.75 40.11 6.75L40.45 6.75L40.45 4.51C39.27 4.03 38.21 3.81 37.28 3.81C36.57 3.81 35.92 3.92 35.32 4.17C34.73 4.42 34.20 4.76 33.78 5.21C33.35 5.66 33.03 6.19 32.79 6.80C32.55 7.42 32.44 8.11 32.44 8.86C32.44 9.63 32.56 10.32 32.79 10.95C33.01 11.58 33.33 12.10 33.74 12.54C34.15 12.99 34.64 13.33 35.21 13.57C35.78 13.80 36.40 13.93 37.09 13.93C37.49 13.93 37.87 13.90 38.22 13.83C38.56 13.76 38.88 13.66 39.17 13.54C39.45 13.41 39.72 13.26 39.96 13.09C40.19 12.91 40.42 12.73 40.63 12.50ZM56.63 13.29L56.53 13.29L56.35 13.29C56.27 13.29 56.18 13.27 56.10 13.27L53.13 9.53C53.05 9.42 52.93 9.32 52.82 9.25C53.26 9.21 53.65 9.11 54.00 8.96C54.35 8.81 54.63 8.61 54.88 8.37C55.12 8.13 55.31 7.85 55.44 7.55C55.57 7.24 55.64 6.89 55.64 6.51C55.64 5.66 55.36 5.03 54.80 4.58C54.24 4.14 53.38 3.92 52.23 3.92L49.83 3.92L48.65 3.92L48.65 4.19C48.65 4.34 48.73 4.42 48.92 4.44L49.06 4.44C49.13 4.44 49.22 4.45 49.36 4.45C49.50 4.45 49.66 4.47 49.83 4.47L49.83 13.26C49.66 13.26 49.50 13.27 49.36 13.27C49.22 13.27 49.13 13.29 49.06 13.29L48.92 13.29C48.73 13.30 48.64 13.38 48.64 13.54L48.64 13.82L49.83 13.82L50.54 13.82L51.72 13.82L51.72 13.54C51.72 13.38 51.62 13.30 51.44 13.29L51.30 13.29C51.23 13.29 51.13 13.27 50.99 13.27C50.85 13.27 50.71 13.26 50.54 13.26L50.54 9.34L51.72 9.34C51.91 9.34 52.05 9.35 52.14 9.39C52.22 9.44 52.30 9.52 52.39 9.62L55.57 13.64C55.62 13.71 55.66 13.75 55.72 13.78C55.78 13.80 55.85 13.82 55.92 13.82L55.99 13.82L56.53 13.82L56.90 13.82L56.90 13.54C56.90 13.38 56.81 13.30 56.63 13.29ZM52.14 8.81L50.54 8.81L50.54 4.48L52.23 4.48C53.12 4.48 53.79 4.66 54.25 5.00C54.71 5.33 54.94 5.87 54.94 6.57C54.94 6.92 54.88 7.21 54.75 7.49C54.63 7.77 54.43 7.99 54.19 8.19C53.96 8.39 53.66 8.55 53.31 8.65C52.96 8.75 52.57 8.81 52.14 8.81ZM74.06 8.86C74.06 8.11 73.93 7.41 73.71 6.79C73.49 6.17 73.16 5.64 72.74 5.19C72.32 4.75 71.83 4.40 71.26 4.16C70.69 3.92 70.03 3.79 69.33 3.79C68.63 3.79 68.00 3.92 67.42 4.16C66.85 4.40 66.35 4.75 65.93 5.19C65.51 5.64 65.18 6.17 64.96 6.79C64.74 7.41 64.61 8.11 64.61 8.86C64.61 9.63 64.74 10.33 64.96 10.95C65.18 11.56 65.51 12.10 65.93 12.54C66.35 12.99 66.85 13.33 67.42 13.57C68.00 13.80 68.63 13.93 69.33 13.93C70.03 13.93 70.69 13.80 71.26 13.57C71.83 13.33 72.32 12.99 72.74 12.54C73.16 12.10 73.49 11.56 73.71 10.95C73.93 10.33 74.06 9.63 74.06 8.86ZM73.30 8.86C73.30 9.56 73.22 10.18 73.02 10.72C72.83 11.27 72.56 11.75 72.21 12.12C71.86 12.50 71.44 12.81 70.95 13.01C70.46 13.20 69.93 13.30 69.33 13.30C68.74 13.30 68.21 13.20 67.72 13.01C67.23 12.81 66.81 12.50 66.46 12.12C66.11 11.75 65.83 11.27 65.63 10.72C65.44 10.18 65.35 9.56 65.35 8.86C65.35 8.18 65.44 7.55 65.63 7.00C65.83 6.45 66.11 5.98 66.46 5.60C66.81 5.22 67.23 4.91 67.72 4.72C68.21 4.52 68.74 4.41 69.33 4.41C69.93 4.41 70.46 4.52 70.95 4.72C71.44 4.91 71.86 5.22 72.21 5.60C72.56 5.98 72.83 6.45 73.02 7.00C73.22 7.55 73.30 8.18 73.30 8.86ZM88.06 9.91C87.92 9.65 87.72 9.39 87.49 9.21C87.25 9.03 87.00 8.88 86.70 8.75C86.41 8.62 86.09 8.51 85.78 8.41C85.47 8.32 85.16 8.20 84.87 8.11C84.57 7.99 84.31 7.87 84.07 7.71C83.83 7.56 83.65 7.38 83.51 7.15C83.37 6.93 83.29 6.65 83.29 6.31C83.29 6.06 83.34 5.82 83.44 5.59C83.54 5.35 83.68 5.15 83.86 4.97C84.04 4.79 84.27 4.65 84.55 4.55C84.83 4.45 85.13 4.40 85.50 4.40C86.17 4.40 86.79 4.51 87.35 4.75C87.39 5.54 87.42 5.99 87.42 6.06C87.43 6.29 87.51 6.41 87.71 6.41L88.05 6.41L88.05 4.38C87.16 4.00 86.32 3.81 85.50 3.81C85.04 3.81 84.63 3.88 84.27 4.02C83.90 4.16 83.61 4.34 83.37 4.58C83.13 4.82 82.94 5.08 82.81 5.39C82.68 5.70 82.63 6.02 82.63 6.36C82.63 6.78 82.70 7.14 82.84 7.42C82.98 7.70 83.17 7.92 83.41 8.12C83.65 8.32 83.90 8.46 84.20 8.58C84.49 8.71 84.81 8.82 85.12 8.92C85.43 9.02 85.72 9.11 86.03 9.21C86.32 9.31 86.59 9.45 86.83 9.60C87.07 9.76 87.25 9.94 87.39 10.16C87.53 10.39 87.60 10.68 87.60 11.03C87.60 11.35 87.54 11.66 87.43 11.94C87.32 12.22 87.16 12.46 86.95 12.67C86.74 12.88 86.48 13.05 86.17 13.16C85.86 13.29 85.51 13.33 85.12 13.33C84.34 13.33 83.68 13.20 83.15 12.95C83.13 12.75 83.13 12.54 83.12 12.32C83.10 12.10 83.10 11.91 83.09 11.76C83.08 11.61 83.08 11.52 83.08 11.51C83.06 11.28 82.96 11.17 82.77 11.17L82.43 11.17L82.43 13.02L82.43 13.20L82.43 13.38C83.29 13.75 84.17 13.93 85.09 13.93C85.60 13.93 86.04 13.85 86.44 13.69C86.83 13.54 87.16 13.31 87.43 13.05C87.70 12.78 87.92 12.46 88.06 12.10C88.20 11.73 88.27 11.34 88.27 10.92C88.27 10.51 88.20 10.18 88.06 9.91ZM97.72 3.92L96.53 3.92L96.53 4.19C96.53 4.34 96.63 4.42 96.81 4.44L96.95 4.44C97.02 4.44 97.12 4.45 97.26 4.45C97.40 4.45 97.55 4.47 97.72 4.47L97.72 13.26C97.55 13.26 97.40 13.27 97.26 13.27C97.12 13.27 97.02 13.29 96.95 13.29L96.81 13.29C96.63 13.30 96.54 13.38 96.54 13.54L96.54 13.82L97.72 13.82L103.66 13.82L103.66 13.22L103.66 11.76L103.31 11.76C103.11 11.76 103.03 11.89 103.01 12.11C103.01 12.14 103.00 12.19 103.00 12.29C103.00 12.39 103.00 12.53 102.98 12.74C102.97 12.95 102.96 13.09 102.96 13.22L98.43 13.22L98.43 9.09L102.38 9.09L102.38 8.51L98.43 8.51L98.43 4.51L102.96 4.51C102.98 5.12 103.01 5.50 103.01 5.63C103.03 5.85 103.11 5.96 103.31 5.96L103.66 5.96L103.66 4.51L103.66 3.92ZM120.23 13.29L120.13 13.29L119.95 13.29C119.87 13.29 119.78 13.27 119.70 13.27L116.73 9.53C116.65 9.42 116.54 9.32 116.42 9.25C116.86 9.21 117.25 9.11 117.60 8.96C117.95 8.81 118.23 8.61 118.48 8.37C118.72 8.13 118.92 7.85 119.04 7.55C119.17 7.24 119.24 6.89 119.24 6.51C119.24 5.66 118.96 5.03 118.40 4.58C117.84 4.14 116.98 3.92 115.84 3.92L113.43 3.92L112.25 3.92L112.25 4.19C112.25 4.34 112.34 4.42 112.52 4.44L112.66 4.44C112.73 4.44 112.83 4.45 112.97 4.45C113.11 4.45 113.26 4.47 113.43 4.47L113.43 13.26C113.26 13.26 113.11 13.27 112.97 13.27C112.83 13.27 112.73 13.29 112.66 13.29L112.52 13.29C112.34 13.30 112.24 13.38 112.24 13.54L112.24 13.82L113.43 13.82L114.14 13.82L115.32 13.82L115.32 13.54C115.32 13.38 115.22 13.30 115.04 13.29L114.90 13.29C114.83 13.29 114.73 13.27 114.59 13.27C114.45 13.27 114.31 13.26 114.14 13.26L114.14 9.34L115.32 9.34C115.51 9.34 115.65 9.35 115.74 9.39C115.82 9.44 115.91 9.52 115.99 9.62L119.17 13.64C119.22 13.71 119.27 13.75 119.32 13.78C119.38 13.80 119.45 13.82 119.52 13.82L119.59 13.82L120.13 13.82L120.50 13.82L120.50 13.54C120.50 13.38 120.41 13.30 120.23 13.29ZM115.74 8.81L114.14 8.81L114.14 4.48L115.84 4.48C116.72 4.48 117.39 4.66 117.85 5.00C118.31 5.33 118.54 5.87 118.54 6.57C118.54 6.92 118.48 7.21 118.36 7.49C118.23 7.77 118.03 7.99 117.80 8.19C117.56 8.39 117.26 8.55 116.91 8.65C116.56 8.75 116.17 8.81 115.74 8.81ZM137.05 3.92L136.49 3.92L136.46 3.92L134.99 3.92L134.99 4.19C134.99 4.34 135.07 4.42 135.25 4.44L135.38 4.44C135.44 4.44 135.52 4.45 135.65 4.45C135.77 4.45 135.91 4.47 136.07 4.47L132.86 12.32C132.78 12.53 132.71 12.75 132.65 13.01C132.59 12.77 132.52 12.53 132.44 12.32L129.21 4.47C129.36 4.47 129.51 4.45 129.64 4.45C129.77 4.45 129.85 4.44 129.91 4.44L130.02 4.44C130.20 4.42 130.30 4.34 130.30 4.19L130.30 3.92L128.80 3.92L128.24 3.92L127.64 3.92L127.64 4.19C127.64 4.34 127.74 4.42 127.92 4.44L128.02 4.44C128.06 4.44 128.13 4.45 128.20 4.45C128.27 4.45 128.37 4.47 128.46 4.47L132.33 13.82L132.96 13.82L136.82 4.47C136.92 4.47 137.02 4.45 137.09 4.45C137.16 4.45 137.23 4.44 137.27 4.44L137.35 4.44C137.54 4.42 137.63 4.34 137.63 4.19L137.63 3.92ZM148.50 4.44C148.68 4.42 148.76 4.34 148.76 4.19L148.76 3.91L147.59 3.91L146.87 3.91L145.68 3.91L145.68 4.19C145.68 4.34 145.78 4.42 145.96 4.44L146.10 4.44C146.17 4.44 146.27 4.45 146.41 4.45C146.55 4.45 146.71 4.47 146.87 4.47L146.87 13.26C146.71 13.26 146.55 13.27 146.41 13.27C146.27 13.27 146.17 13.29 146.10 13.29L145.96 13.29C145.78 13.30 145.68 13.38 145.68 13.54L145.68 13.82L146.87 13.82L147.59 13.82L148.76 13.82L148.76 13.54C148.76 13.38 148.68 13.30 148.50 13.29L148.36 13.29C148.29 13.29 148.19 13.27 148.05 13.27C147.91 13.27 147.76 13.26 147.59 13.26L147.59 4.47C147.76 4.47 147.91 4.45 148.05 4.45C148.19 4.45 148.29 4.44 148.36 4.44ZM164.84 12.21C164.81 12.18 164.77 12.15 164.72 12.15C164.70 12.15 164.68 12.15 164.65 12.17C164.64 12.18 164.61 12.21 164.58 12.22C164.39 12.40 164.18 12.56 163.98 12.70C163.79 12.84 163.58 12.94 163.34 13.03C163.10 13.13 162.85 13.20 162.57 13.24C162.29 13.29 161.98 13.31 161.63 13.31C161.07 13.31 160.52 13.22 160.05 13.01C159.56 12.81 159.15 12.52 158.80 12.14C158.45 11.76 158.16 11.28 157.96 10.74C157.77 10.19 157.67 9.56 157.67 8.86C157.67 8.18 157.77 7.56 157.96 7.01C158.17 6.47 158.45 6.01 158.82 5.61C159.18 5.24 159.61 4.94 160.12 4.73C160.62 4.52 161.17 4.42 161.77 4.42C162.67 4.42 163.49 4.56 164.22 4.89C164.26 5.78 164.30 6.30 164.30 6.41C164.32 6.64 164.40 6.75 164.60 6.75L164.93 6.75L164.93 4.51C163.76 4.03 162.69 3.81 161.77 3.81C161.06 3.81 160.41 3.92 159.81 4.17C159.22 4.42 158.69 4.76 158.27 5.21C157.84 5.66 157.51 6.19 157.28 6.80C157.04 7.42 156.93 8.11 156.93 8.86C156.93 9.63 157.05 10.32 157.28 10.95C157.50 11.58 157.82 12.10 158.23 12.54C158.63 12.99 159.12 13.33 159.70 13.57C160.27 13.80 160.89 13.93 161.57 13.93C161.98 13.93 162.36 13.90 162.71 13.83C163.04 13.76 163.37 13.66 163.66 13.54C163.94 13.41 164.21 13.26 164.44 13.09C164.68 12.91 164.91 12.73 165.12 12.50ZM174.31 3.92L173.12 3.92L173.12 4.19C173.12 4.34 173.22 4.42 173.40 4.44L173.54 4.44C173.61 4.44 173.71 4.45 173.85 4.45C173.99 4.45 174.15 4.47 174.31 4.47L174.31 13.26C174.15 13.26 173.99 13.27 173.85 13.27C173.71 13.27 173.61 13.29 173.54 13.29L173.40 13.29C173.22 13.30 173.14 13.38 173.14 13.54L173.14 13.82L174.31 13.82L180.25 13.82L180.25 13.22L180.25 11.76L179.90 11.76C179.70 11.76 179.62 11.89 179.61 12.11C179.61 12.14 179.59 12.19 179.59 12.29C179.59 12.39 179.59 12.53 179.58 12.74C179.56 12.95 179.55 13.09 179.55 13.22L175.03 13.22L175.03 9.09L178.98 9.09L178.98 8.51L175.03 8.51L175.03 4.51L179.55 4.51C179.58 5.12 179.61 5.50 179.61 5.63C179.62 5.85 179.70 5.96 179.90 5.96L180.25 5.96L180.25 4.51L180.25 3.92ZM194.56 9.91C194.42 9.65 194.22 9.39 193.98 9.21C193.75 9.03 193.49 8.88 193.20 8.75C192.91 8.62 192.58 8.51 192.28 8.41C191.97 8.32 191.66 8.20 191.37 8.11C191.07 7.99 190.81 7.87 190.57 7.71C190.33 7.56 190.15 7.38 190.01 7.15C189.87 6.93 189.78 6.65 189.78 6.31C189.78 6.06 189.84 5.82 189.94 5.59C190.04 5.35 190.18 5.15 190.36 4.97C190.54 4.79 190.76 4.65 191.04 4.55C191.32 4.45 191.63 4.40 192.00 4.40C192.67 4.40 193.28 4.51 193.84 4.75C193.89 5.54 193.91 5.99 193.91 6.06C193.93 6.29 194.01 6.41 194.21 6.41L194.54 6.41L194.54 4.38C193.66 4.00 192.82 3.81 192.00 3.81C191.53 3.81 191.13 3.88 190.76 4.02C190.40 4.16 190.11 4.34 189.87 4.58C189.63 4.82 189.43 5.08 189.31 5.39C189.18 5.70 189.13 6.02 189.13 6.36C189.13 6.78 189.20 7.14 189.34 7.42C189.48 7.70 189.67 7.92 189.91 8.12C190.15 8.32 190.40 8.46 190.69 8.58C190.99 8.71 191.31 8.82 191.62 8.92C191.93 9.02 192.22 9.11 192.53 9.21C192.82 9.31 193.09 9.45 193.33 9.60C193.56 9.76 193.75 9.94 193.89 10.16C194.03 10.39 194.10 10.68 194.10 11.03C194.10 11.35 194.04 11.66 193.93 11.94C193.82 12.22 193.66 12.46 193.45 12.67C193.24 12.88 192.98 13.05 192.67 13.16C192.36 13.29 192.01 13.33 191.62 13.33C190.83 13.33 190.18 13.20 189.64 12.95C189.63 12.75 189.63 12.54 189.62 12.32C189.60 12.10 189.60 11.91 189.59 11.76C189.57 11.61 189.57 11.52 189.57 11.51C189.56 11.28 189.46 11.17 189.27 11.17L188.93 11.17L188.93 13.02L188.93 13.20L188.93 13.38C189.78 13.75 190.67 13.93 191.59 13.93C192.09 13.93 192.54 13.85 192.93 13.69C193.33 13.54 193.66 13.31 193.93 13.05C194.19 12.78 194.42 12.46 194.56 12.10C194.70 11.73 194.77 11.34 194.77 10.92C194.77 10.51 194.70 10.18 194.56 9.91ZM221.40 13.29L221.30 13.29L221.12 13.29C221.03 13.29 220.95 13.27 220.86 13.27L217.90 9.53C217.81 9.42 217.70 9.32 217.59 9.25C218.02 9.21 218.41 9.11 218.76 8.96C219.11 8.81 219.39 8.61 219.65 8.37C219.88 8.13 220.08 7.85 220.21 7.55C220.33 7.24 220.40 6.89 220.40 6.51C220.40 5.66 220.12 5.03 219.56 4.58C219.00 4.14 218.15 3.92 217.00 3.92L214.59 3.92L213.42 3.92L213.42 4.19C213.42 4.34 213.50 4.42 213.68 4.44L213.82 4.44C213.89 4.44 213.99 4.45 214.13 4.45C214.27 4.45 214.42 4.47 214.59 4.47L214.59 13.26C214.42 13.26 214.27 13.27 214.13 13.27C213.99 13.27 213.89 13.29 213.82 13.29L213.68 13.29C213.50 13.30 213.40 13.38 213.40 13.54L213.40 13.82L214.59 13.82L215.31 13.82L216.48 13.82L216.48 13.54C216.48 13.38 216.38 13.30 216.20 13.29L216.06 13.29C215.99 13.29 215.89 13.27 215.75 13.27C215.61 13.27 215.47 13.26 215.31 13.26L215.31 9.34L216.48 9.34C216.68 9.34 216.82 9.35 216.90 9.39C216.99 9.44 217.07 9.52 217.15 9.62L220.33 13.64C220.39 13.71 220.43 13.75 220.49 13.78C220.54 13.80 220.61 13.82 220.68 13.82L220.75 13.82L221.30 13.82L221.66 13.82L221.66 13.54C221.66 13.38 221.58 13.30 221.40 13.29ZM216.90 8.81L215.31 8.81L215.31 4.48L217.00 4.48C217.88 4.48 218.55 4.66 219.02 5.00C219.48 5.33 219.70 5.87 219.70 6.57C219.70 6.92 219.65 7.21 219.52 7.49C219.39 7.77 219.20 7.99 218.96 8.19C218.72 8.39 218.43 8.55 218.08 8.65C217.73 8.75 217.34 8.81 216.90 8.81ZM231.06 3.92L229.87 3.92L229.87 4.19C229.87 4.34 229.96 4.42 230.15 4.44L230.29 4.44C230.36 4.44 230.45 4.45 230.59 4.45C230.73 4.45 230.89 4.47 231.06 4.47L231.06 13.26C230.89 13.26 230.73 13.27 230.59 13.27C230.45 13.27 230.36 13.29 230.29 13.29L230.15 13.29C229.96 13.30 229.88 13.38 229.88 13.54L229.88 13.82L231.06 13.82L236.99 13.82L236.99 13.22L236.99 11.76L236.64 11.76C236.45 11.76 236.36 11.89 236.35 12.11C236.35 12.14 236.33 12.19 236.33 12.29C236.33 12.39 236.33 12.53 236.32 12.74C236.31 12.95 236.29 13.09 236.29 13.22L231.77 13.22L231.77 9.09L235.72 9.09L235.72 8.51L231.77 8.51L231.77 4.51L236.29 4.51C236.32 5.12 236.35 5.50 236.35 5.63C236.36 5.85 236.45 5.96 236.64 5.96L236.99 5.96L236.99 4.51L236.99 3.92ZM252.70 3.92L252.35 3.92L246.76 3.92L245.57 3.92L245.57 4.19C245.57 4.34 245.67 4.42 245.85 4.44L245.99 4.44C246.06 4.44 246.16 4.45 246.30 4.45C246.44 4.45 246.60 4.47 246.76 4.47L246.76 13.26C246.60 13.26 246.44 13.27 246.30 13.27C246.16 13.27 246.06 13.29 245.99 13.29L245.85 13.29C245.67 13.30 245.57 13.38 245.57 13.54L245.57 13.82L246.76 13.82L247.48 13.82L248.65 13.82L248.65 13.54C248.65 13.38 248.57 13.30 248.39 13.29L248.25 13.29C248.18 13.29 248.08 13.27 247.94 13.27C247.80 13.27 247.65 13.26 247.48 13.26L247.48 9.27L251.17 9.27L251.17 8.67L247.48 8.67L247.48 4.51L252.08 4.51C252.11 5.18 252.14 5.56 252.14 5.63C252.15 5.85 252.25 5.96 252.45 5.96L252.78 5.96L252.78 3.92ZM262.09 3.92L260.90 3.92L260.90 4.19C260.90 4.34 261.00 4.42 261.18 4.44L261.32 4.44C261.39 4.44 261.49 4.45 261.63 4.45C261.77 4.45 261.93 4.47 262.09 4.47L262.09 13.26C261.93 13.26 261.77 13.27 261.63 13.27C261.49 13.27 261.39 13.29 261.32 13.29L261.18 13.29C261.00 13.30 260.92 13.38 260.92 13.54L260.92 13.82L262.09 13.82L268.03 13.82L268.03 13.22L268.03 11.76L267.68 11.76C267.48 11.76 267.40 11.89 267.39 12.11C267.39 12.14 267.37 12.19 267.37 12.29C267.37 12.39 267.37 12.53 267.36 12.74C267.34 12.95 267.33 13.09 267.33 13.22L262.81 13.22L262.81 9.09L266.76 9.09L266.76 8.51L262.81 8.51L262.81 4.51L267.33 4.51C267.36 5.12 267.39 5.50 267.39 5.63C267.40 5.85 267.48 5.96 267.68 5.96L268.03 5.96L268.03 4.51L268.03 3.92ZM284.61 13.29L284.51 13.29L284.33 13.29C284.24 13.29 284.16 13.27 284.07 13.27L281.11 9.53C281.02 9.42 280.91 9.32 280.80 9.25C281.23 9.21 281.62 9.11 281.97 8.96C282.32 8.81 282.60 8.61 282.86 8.37C283.09 8.13 283.29 7.85 283.42 7.55C283.54 7.24 283.61 6.89 283.61 6.51C283.61 5.66 283.33 5.03 282.77 4.58C282.21 4.14 281.36 3.92 280.21 3.92L277.80 3.92L276.63 3.92L276.63 4.19C276.63 4.34 276.71 4.42 276.89 4.44L277.03 4.44C277.10 4.44 277.20 4.45 277.34 4.45C277.48 4.45 277.63 4.47 277.80 4.47L277.80 13.26C277.63 13.26 277.48 13.27 277.34 13.27C277.20 13.27 277.10 13.29 277.03 13.29L276.89 13.29C276.71 13.30 276.61 13.38 276.61 13.54L276.61 13.82L277.80 13.82L278.52 13.82L279.69 13.82L279.69 13.54C279.69 13.38 279.59 13.30 279.41 13.29L279.27 13.29C279.20 13.29 279.10 13.27 278.96 13.27C278.82 13.27 278.68 13.26 278.52 13.26L278.52 9.34L279.69 9.34C279.89 9.34 280.03 9.35 280.11 9.39C280.20 9.44 280.28 9.52 280.36 9.62L283.54 13.64C283.60 13.71 283.64 13.75 283.70 13.78C283.75 13.80 283.82 13.82 283.89 13.82L283.96 13.82L284.51 13.82L284.87 13.82L284.87 13.54C284.87 13.38 284.79 13.30 284.61 13.29ZM280.11 8.81L278.52 8.81L278.52 4.48L280.21 4.48C281.09 4.48 281.76 4.66 282.23 5.00C282.69 5.33 282.91 5.87 282.91 6.57C282.91 6.92 282.86 7.21 282.73 7.49C282.60 7.77 282.41 7.99 282.17 8.19C281.93 8.39 281.64 8.55 281.29 8.65C280.94 8.75 280.55 8.81 280.11 8.81ZM294.27 3.92L293.08 3.92L293.08 4.19C293.08 4.34 293.17 4.42 293.36 4.44L293.50 4.44C293.57 4.44 293.66 4.45 293.80 4.45C293.94 4.45 294.10 4.47 294.27 4.47L294.27 13.26C294.10 13.26 293.94 13.27 293.80 13.27C293.66 13.27 293.57 13.29 293.50 13.29L293.36 13.29C293.17 13.30 293.09 13.38 293.09 13.54L293.09 13.82L294.27 13.82L300.20 13.82L300.20 13.22L300.20 11.76L299.85 11.76C299.66 11.76 299.57 11.89 299.56 12.11C299.56 12.14 299.54 12.19 299.54 12.29C299.54 12.39 299.54 12.53 299.53 12.74C299.52 12.95 299.50 13.09 299.50 13.22L294.98 13.22L294.98 9.09L298.93 9.09L298.93 8.51L294.98 8.51L294.98 4.51L299.50 4.51C299.53 5.12 299.56 5.50 299.56 5.63C299.57 5.85 299.66 5.96 299.85 5.96L300.20 5.96L300.20 4.51L300.20 3.92ZM317.62 3.92L316.99 3.92L315.77 3.92L315.77 4.19C315.77 4.34 315.87 4.42 316.05 4.44L316.19 4.44C316.26 4.44 316.37 4.45 316.51 4.45C316.65 4.45 316.82 4.47 316.99 4.47L316.99 12.22C316.99 12.35 316.99 12.49 317.00 12.63L310.59 4.05C310.55 3.99 310.52 3.95 310.48 3.93C310.44 3.92 310.39 3.91 310.32 3.91L309.97 3.91L308.78 3.91L308.78 4.19C308.78 4.34 308.88 4.42 309.06 4.44L309.20 4.44C309.27 4.44 309.37 4.45 309.51 4.45C309.65 4.45 309.81 4.47 309.97 4.47L309.97 13.26C309.81 13.26 309.65 13.27 309.51 13.27C309.37 13.27 309.27 13.29 309.20 13.29L309.06 13.29C308.88 13.30 308.78 13.38 308.78 13.54L308.78 13.82L309.97 13.82L310.59 13.82L311.81 13.82L311.81 13.54C311.81 13.38 311.71 13.30 311.53 13.29L311.39 13.29C311.32 13.29 311.19 13.27 311.05 13.27C310.91 13.27 310.76 13.26 310.59 13.26L310.59 5.49C310.59 5.36 310.59 5.22 310.58 5.08L317.02 13.68C317.09 13.78 317.16 13.82 317.27 13.82L317.62 13.82L317.62 4.47C317.79 4.47 317.93 4.45 318.07 4.45C318.21 4.45 318.32 4.44 318.39 4.44L318.51 4.44C318.70 4.42 318.79 4.34 318.79 4.19L318.79 3.92ZM334.56 12.21C334.53 12.18 334.49 12.15 334.45 12.15C334.42 12.15 334.40 12.15 334.38 12.17C334.36 12.18 334.33 12.21 334.31 12.22C334.11 12.40 333.90 12.56 333.70 12.70C333.51 12.84 333.30 12.94 333.06 13.03C332.82 13.13 332.57 13.20 332.29 13.24C332.01 13.29 331.70 13.31 331.35 13.31C330.79 13.31 330.25 13.22 329.77 13.01C329.28 12.81 328.87 12.52 328.52 12.14C328.17 11.76 327.88 11.28 327.68 10.74C327.49 10.19 327.39 9.56 327.39 8.86C327.39 8.18 327.49 7.56 327.68 7.01C327.89 6.47 328.17 6.01 328.54 5.61C328.90 5.24 329.34 4.94 329.84 4.73C330.34 4.52 330.89 4.42 331.49 4.42C332.39 4.42 333.21 4.56 333.94 4.89C333.98 5.78 334.03 6.30 334.03 6.41C334.04 6.64 334.12 6.75 334.32 6.75L334.66 6.75L334.66 4.51C333.48 4.03 332.42 3.81 331.49 3.81C330.78 3.81 330.13 3.92 329.53 4.17C328.94 4.42 328.41 4.76 327.99 5.21C327.56 5.66 327.24 6.19 327.00 6.80C326.76 7.42 326.65 8.11 326.65 8.86C326.65 9.63 326.77 10.32 327.00 10.95C327.22 11.58 327.54 12.10 327.95 12.54C328.36 12.99 328.85 13.33 329.42 13.57C329.99 13.80 330.61 13.93 331.30 13.93C331.70 13.93 332.08 13.90 332.43 13.83C332.77 13.76 333.09 13.66 333.38 13.54C333.66 13.41 333.93 13.26 334.17 13.09C334.40 12.91 334.63 12.73 334.84 12.50ZM344.04 3.92L342.85 3.92L342.85 4.19C342.85 4.34 342.94 4.42 343.13 4.44L343.27 4.44C343.34 4.44 343.43 4.45 343.57 4.45C343.71 4.45 343.87 4.47 344.04 4.47L344.04 13.26C343.87 13.26 343.71 13.27 343.57 13.27C343.43 13.27 343.34 13.29 343.27 13.29L343.13 13.29C342.94 13.30 342.86 13.38 342.86 13.54L342.86 13.82L344.04 13.82L349.97 13.82L349.97 13.22L349.97 11.76L349.62 11.76C349.43 11.76 349.34 11.89 349.33 12.11C349.33 12.14 349.31 12.19 349.31 12.29C349.31 12.39 349.31 12.53 349.30 12.74C349.29 12.95 349.27 13.09 349.27 13.22L344.75 13.22L344.75 9.09L348.70 9.09L348.70 8.51L344.75 8.51L344.75 4.51L349.27 4.51C349.30 5.12 349.33 5.50 349.33 5.63C349.34 5.85 349.43 5.96 349.62 5.96L349.97 5.96L349.97 4.51L349.97 3.92ZM378.22 13.22L377.76 13.17L373.98 3.91L373.27 3.91L369.47 13.17L369.03 13.22C368.84 13.23 368.76 13.33 368.76 13.50L368.76 13.82L369.21 13.82L369.50 13.82L369.75 13.82L369.85 13.82L371.17 13.82L371.17 13.50C371.17 13.31 371.06 13.23 370.85 13.22C370.83 13.22 370.80 13.20 370.76 13.20C370.72 13.20 370.66 13.19 370.57 13.19C370.47 13.19 370.34 13.19 370.20 13.17L371.18 10.75L371.25 10.57L375.98 10.57L376.05 10.75L377.03 13.17C376.89 13.19 376.78 13.19 376.68 13.19C376.59 13.19 376.52 13.20 376.47 13.20C376.43 13.20 376.40 13.22 376.39 13.22C376.18 13.23 376.07 13.31 376.07 13.50L376.07 13.82L377.38 13.82L377.48 13.82L377.75 13.82L378.03 13.82L378.49 13.82L378.49 13.50C378.49 13.33 378.41 13.23 378.22 13.22ZM373.42 5.22C373.45 5.14 373.49 5.04 373.52 4.94C373.55 4.84 373.59 4.75 373.62 4.63C373.65 4.75 373.69 4.84 373.72 4.94C373.74 5.04 373.79 5.12 373.81 5.21L375.77 10.04L371.48 10.04ZM392.95 4.68C392.36 4.17 391.48 3.92 390.32 3.92L387.91 3.92L386.72 3.92L386.72 4.19C386.72 4.34 386.82 4.42 387.00 4.44L387.14 4.44C387.21 4.44 387.31 4.45 387.45 4.45C387.59 4.45 387.74 4.47 387.91 4.47L387.91 13.26C387.74 13.26 387.59 13.27 387.45 13.27C387.31 13.27 387.21 13.29 387.14 13.29L387.00 13.29C386.82 13.30 386.72 13.38 386.72 13.54L386.72 13.82L387.91 13.82L388.63 13.82L389.80 13.82L389.80 13.54C389.80 13.38 389.70 13.30 389.52 13.29L389.40 13.29C389.33 13.29 389.21 13.27 389.07 13.27C388.93 13.27 388.79 13.26 388.63 13.26L388.63 9.83L390.32 9.83C390.87 9.83 391.36 9.74 391.79 9.60C392.22 9.45 392.59 9.25 392.90 8.99C393.20 8.72 393.44 8.41 393.60 8.05C393.76 7.69 393.83 7.29 393.83 6.86C393.83 5.92 393.54 5.18 392.95 4.68ZM392.92 7.81C392.80 8.11 392.62 8.36 392.38 8.57C392.14 8.78 391.85 8.95 391.50 9.07C391.15 9.20 390.75 9.25 390.32 9.25L388.63 9.25L388.63 4.48L390.32 4.48C391.24 4.48 391.94 4.69 392.42 5.10C392.88 5.50 393.12 6.09 393.12 6.85C393.12 7.20 393.05 7.52 392.92 7.81ZM408.25 4.68C407.67 4.17 406.78 3.92 405.62 3.92L403.21 3.92L402.02 3.92L402.02 4.19C402.02 4.34 402.12 4.42 402.30 4.44L402.44 4.44C402.51 4.44 402.61 4.45 402.75 4.45C402.89 4.45 403.05 4.47 403.21 4.47L403.21 13.26C403.05 13.26 402.89 13.27 402.75 13.27C402.61 13.27 402.51 13.29 402.44 13.29L402.30 13.29C402.12 13.30 402.02 13.38 402.02 13.54L402.02 13.82L403.21 13.82L403.93 13.82L405.10 13.82L405.10 13.54C405.10 13.38 405.01 13.30 404.82 13.29L404.70 13.29C404.63 13.29 404.52 13.27 404.38 13.27C404.24 13.27 404.10 13.26 403.93 13.26L403.93 9.83L405.62 9.83C406.17 9.83 406.66 9.74 407.09 9.60C407.53 9.45 407.89 9.25 408.20 8.99C408.51 8.72 408.74 8.41 408.90 8.05C409.07 7.69 409.14 7.29 409.14 6.86C409.14 5.92 408.84 5.18 408.25 4.68ZM408.23 7.81C408.10 8.11 407.92 8.36 407.68 8.57C407.44 8.78 407.15 8.95 406.80 9.07C406.45 9.20 406.06 9.25 405.62 9.25L403.93 9.25L403.93 4.48L405.62 4.48C406.55 4.48 407.25 4.69 407.72 5.10C408.18 5.50 408.42 6.09 408.42 6.85C408.42 7.20 408.35 7.52 408.23 7.81ZM423.70 11.97C423.50 11.97 423.42 12.08 423.40 12.31C423.40 12.32 423.40 12.38 423.39 12.43C423.37 12.49 423.37 12.59 423.36 12.71C423.35 12.84 423.33 13.01 423.32 13.20L419.23 13.20L419.23 4.47C419.40 4.47 419.54 4.45 419.68 4.45C419.82 4.45 419.93 4.44 420.00 4.44L420.13 4.44C420.31 4.42 420.41 4.34 420.41 4.19L420.41 3.92L419.23 3.92L418.52 3.92L417.33 3.92L417.33 4.19C417.33 4.34 417.42 4.42 417.61 4.44L417.75 4.44C417.82 4.44 417.91 4.45 418.05 4.45C418.19 4.45 418.35 4.47 418.52 4.47L418.52 13.26C418.35 13.26 418.19 13.27 418.05 13.27C417.91 13.27 417.82 13.29 417.75 13.29L417.61 13.29C417.42 13.30 417.33 13.38 417.33 13.54L417.33 13.82L418.52 13.82L423.79 13.82L423.92 13.82L424.05 13.82L424.05 13.55L424.05 12.99L424.05 11.97L423.77 11.97ZM435.29 4.44C435.47 4.42 435.55 4.34 435.55 4.19L435.55 3.91L434.38 3.91L433.66 3.91L432.47 3.91L432.47 4.19C432.47 4.34 432.57 4.42 432.75 4.44L432.89 4.44C432.96 4.44 433.06 4.45 433.20 4.45C433.34 4.45 433.50 4.47 433.66 4.47L433.66 13.26C433.50 13.26 433.34 13.27 433.20 13.27C433.06 13.27 432.96 13.29 432.89 13.29L432.75 13.29C432.57 13.30 432.47 13.38 432.47 13.54L432.47 13.82L433.66 13.82L434.38 13.82L435.55 13.82L435.55 13.54C435.55 13.38 435.47 13.30 435.29 13.29L435.15 13.29C435.08 13.29 434.98 13.27 434.84 13.27C434.70 13.27 434.55 13.26 434.38 13.26L434.38 4.47C434.55 4.47 434.70 4.45 434.84 4.45C434.98 4.45 435.08 4.44 435.15 4.44ZM451.63 12.21C451.60 12.18 451.56 12.15 451.51 12.15C451.49 12.15 451.47 12.15 451.44 12.17C451.43 12.18 451.40 12.21 451.37 12.22C451.18 12.40 450.97 12.56 450.77 12.70C450.58 12.84 450.37 12.94 450.13 13.03C449.89 13.13 449.64 13.20 449.36 13.24C449.08 13.29 448.77 13.31 448.42 13.31C447.86 13.31 447.31 13.22 446.84 13.01C446.35 12.81 445.94 12.52 445.59 12.14C445.24 11.76 444.95 11.28 444.75 10.74C444.56 10.19 444.46 9.56 444.46 8.86C444.46 8.18 444.56 7.56 444.75 7.01C444.96 6.47 445.24 6.01 445.61 5.61C445.97 5.24 446.40 4.94 446.91 4.73C447.41 4.52 447.96 4.42 448.56 4.42C449.46 4.42 450.28 4.56 451.01 4.89C451.05 5.78 451.09 6.30 451.09 6.41C451.11 6.64 451.19 6.75 451.39 6.75L451.72 6.75L451.72 4.51C450.55 4.03 449.48 3.81 448.56 3.81C447.85 3.81 447.20 3.92 446.60 4.17C446.01 4.42 445.48 4.76 445.06 5.21C444.63 5.66 444.30 6.19 444.07 6.80C443.83 7.42 443.72 8.11 443.72 8.86C443.72 9.63 443.84 10.32 444.07 10.95C444.29 11.58 444.61 12.10 445.02 12.54C445.42 12.99 445.91 13.33 446.49 13.57C447.06 13.80 447.68 13.93 448.36 13.93C448.77 13.93 449.15 13.90 449.50 13.83C449.83 13.76 450.16 13.66 450.45 13.54C450.73 13.41 451.00 13.26 451.23 13.09C451.47 12.91 451.70 12.73 451.91 12.50ZM469.21 13.22L468.75 13.17L464.97 3.91L464.25 3.91L460.46 13.17L460.01 13.22C459.83 13.23 459.75 13.33 459.75 13.50L459.75 13.82L460.19 13.82L460.49 13.82L460.74 13.82L460.84 13.82L462.15 13.82L462.15 13.50C462.15 13.31 462.04 13.23 461.83 13.22C461.82 13.22 461.79 13.20 461.75 13.20C461.71 13.20 461.65 13.19 461.55 13.19C461.45 13.19 461.33 13.19 461.19 13.17L462.17 10.75L462.24 10.57L466.97 10.57L467.04 10.75L468.02 13.17C467.88 13.19 467.77 13.19 467.67 13.19C467.57 13.19 467.50 13.20 467.46 13.20C467.42 13.20 467.39 13.22 467.38 13.22C467.17 13.23 467.05 13.31 467.05 13.50L467.05 13.82L468.37 13.82L468.47 13.82L468.73 13.82L469.01 13.82L469.48 13.82L469.48 13.50C469.48 13.33 469.39 13.23 469.21 13.22ZM464.41 5.22C464.44 5.14 464.48 5.04 464.51 4.94C464.53 4.84 464.58 4.75 464.60 4.63C464.63 4.75 464.67 4.84 464.70 4.94C464.73 5.04 464.77 5.12 464.80 5.21L466.76 10.04L462.46 10.04ZM484.13 3.92L483.94 3.92L476.64 3.92L476.43 3.92L476.34 3.92L476.34 5.96L476.69 5.96C476.88 5.96 476.97 5.85 476.98 5.63C476.98 5.53 477.01 5.17 477.04 4.52L479.93 4.52L479.93 13.26C479.77 13.26 479.63 13.27 479.49 13.27C479.35 13.27 479.23 13.29 479.16 13.29L479.04 13.29C478.86 13.30 478.76 13.38 478.76 13.54L478.76 13.82L479.93 13.82L480.65 13.82L481.84 13.82L481.84 13.54C481.84 13.38 481.74 13.30 481.56 13.29L481.42 13.29C481.35 13.29 481.25 13.27 481.11 13.27C480.97 13.27 480.82 13.26 480.65 13.26L480.65 4.52L483.53 4.52C483.57 5.24 483.59 5.60 483.59 5.63C483.60 5.85 483.70 5.96 483.90 5.96L484.23 5.96L484.23 3.92ZM495.15 4.44C495.33 4.42 495.42 4.34 495.42 4.19L495.42 3.91L494.24 3.91L493.53 3.91L492.34 3.91L492.34 4.19C492.34 4.34 492.44 4.42 492.62 4.44L492.76 4.44C492.83 4.44 492.93 4.45 493.07 4.45C493.21 4.45 493.36 4.47 493.53 4.47L493.53 13.26C493.36 13.26 493.21 13.27 493.07 13.27C492.93 13.27 492.83 13.29 492.76 13.29L492.62 13.29C492.44 13.30 492.34 13.38 492.34 13.54L492.34 13.82L493.53 13.82L494.24 13.82L495.42 13.82L495.42 13.54C495.42 13.38 495.33 13.30 495.15 13.29L495.01 13.29C494.94 13.29 494.84 13.27 494.70 13.27C494.56 13.27 494.41 13.26 494.24 13.26L494.24 4.47C494.41 4.47 494.56 4.45 494.70 4.45C494.84 4.45 494.94 4.44 495.01 4.44ZM513.03 8.86C513.03 8.11 512.90 7.41 512.68 6.79C512.46 6.17 512.13 5.64 511.71 5.19C511.29 4.75 510.80 4.40 510.23 4.16C509.66 3.92 509.00 3.79 508.30 3.79C507.60 3.79 506.97 3.92 506.39 4.16C505.82 4.40 505.32 4.75 504.90 5.19C504.48 5.64 504.15 6.17 503.93 6.79C503.71 7.41 503.58 8.11 503.58 8.86C503.58 9.63 503.71 10.33 503.93 10.95C504.15 11.56 504.48 12.10 504.90 12.54C505.32 12.99 505.82 13.33 506.39 13.57C506.97 13.80 507.60 13.93 508.30 13.93C509.00 13.93 509.66 13.80 510.23 13.57C510.80 13.33 511.29 12.99 511.71 12.54C512.13 12.10 512.46 11.56 512.68 10.95C512.90 10.33 513.03 9.63 513.03 8.86ZM512.27 8.86C512.27 9.56 512.19 10.18 511.99 10.72C511.80 11.27 511.53 11.75 511.18 12.12C510.83 12.50 510.41 12.81 509.92 13.01C509.43 13.20 508.90 13.30 508.30 13.30C507.71 13.30 507.18 13.20 506.69 13.01C506.20 12.81 505.78 12.50 505.43 12.12C505.08 11.75 504.80 11.27 504.60 10.72C504.41 10.18 504.32 9.56 504.32 8.86C504.32 8.18 504.41 7.55 504.60 7.00C504.80 6.45 505.08 5.98 505.43 5.60C505.78 5.22 506.20 4.91 506.69 4.72C507.18 4.52 507.71 4.41 508.30 4.41C508.90 4.41 509.43 4.52 509.92 4.72C510.41 4.91 510.83 5.22 511.18 5.60C511.53 5.98 511.80 6.45 511.99 7.00C512.19 7.55 512.27 8.18 512.27 8.86ZM529.86 3.92L529.23 3.92L528.01 3.92L528.01 4.19C528.01 4.34 528.11 4.42 528.29 4.44L528.43 4.44C528.50 4.44 528.61 4.45 528.75 4.45C528.89 4.45 529.06 4.47 529.23 4.47L529.23 12.22C529.23 12.35 529.23 12.49 529.24 12.63L522.83 4.05C522.79 3.99 522.76 3.95 522.72 3.93C522.68 3.92 522.63 3.91 522.56 3.91L522.21 3.91L521.02 3.91L521.02 4.19C521.02 4.34 521.12 4.42 521.30 4.44L521.44 4.44C521.51 4.44 521.61 4.45 521.75 4.45C521.89 4.45 522.05 4.47 522.21 4.47L522.21 13.26C522.05 13.26 521.89 13.27 521.75 13.27C521.61 13.27 521.51 13.29 521.44 13.29L521.30 13.29C521.12 13.30 521.02 13.38 521.02 13.54L521.02 13.82L522.21 13.82L522.83 13.82L524.05 13.82L524.05 13.54C524.05 13.38 523.95 13.30 523.77 13.29L523.63 13.29C523.56 13.29 523.43 13.27 523.29 13.27C523.15 13.27 523.00 13.26 522.83 13.26L522.83 5.49C522.83 5.36 522.83 5.22 522.82 5.08L529.26 13.68C529.33 13.78 529.40 13.82 529.51 13.82L529.86 13.82L529.86 4.47C530.03 4.47 530.17 4.45 530.31 4.45C530.45 4.45 530.56 4.44 530.63 4.44L530.75 4.44C530.94 4.42 531.03 4.34 531.03 4.19L531.03 3.92Z"></path></g></svg>